<?xml version="1.0" encoding="UTF-8" standalone="no"?>
<svg
   id="svg837"
   version="1.1"
   color="#264653"
   fill="none"
   stroke-linejoin="round"
   stroke-linecap="round"
   stroke-width="2"
   stroke="#264653"
   aria-labelledby="helpIconTitle"
   viewBox="0 0 24 24"
   height="120px"
   width="120px"
   role="img">
  <defs
     id="defs841" />
  <title
     id="helpIconTitle">Help</title>
  <path
     id="path831"
     d="M12 14C12 12 13.576002 11.6652983 14.1186858 11.1239516 14.663127 10.5808518 15 9.82976635 15 9 15 7.34314575 13.6568542 6 12 6 11.1040834 6 10.2998929 6.39272604 9.75018919 7.01541737 9.49601109 7.30334431 9.29624369 7.64043912 9.16697781 8.01061095" />
  <line
     id="line833"
     y2="17"
     x2="12"
     y1="17"
     x1="12" />
  <circle
     id="circle835"
     r="10"
     cy="12"
     cx="12" />
  <path
     transform="scale(0.2)"
     id="path4549"
     d="M 55.938909,114.77098 C 45.654556,113.78543 37.061493,110.77067 29.147737,105.37163 25.857394,103.12685 24.180176,101.71638 20.998331,98.518356 16.534509,94.031829 13.537848,89.815153 10.708054,84.038653 5.6853056,73.785645 3.9948402,62.418436 5.8214933,51.179921 6.9434236,44.277225 9.829545,36.606962 13.46593,30.86378 16.398179,26.232689 21.371503,20.604261 25.378637,17.38189 33.195832,11.095625 42.335438,7.1302565 52.616968,5.5640909 55.819281,5.0762887 64.171846,5.077336 67.348077,5.565938 c 12.539107,1.9288999 22.947272,7.118503 31.487555,15.699974 8.433498,8.474171 13.551658,18.635506 15.520518,30.81365 0.51171,3.165187 0.51171,12.671501 0,15.836688 -1.37221,8.487622 -4.08271,15.530253 -8.59661,22.336325 -9.330242,14.068185 -24.269649,22.961185 -41.06002,24.441855 -2.173274,0.19165 -7.109448,0.23478 -8.760611,0.0765 z m 10.594227,-10.16063 c 14.817669,-2.21048 27.340672,-11.381816 33.931614,-24.850135 3.11597,-6.367361 4.57433,-12.66785 4.57433,-19.762309 0,-7.094459 -1.45836,-13.394948 -4.57433,-19.762309 -6.629399,-13.546908 -19.04102,-22.596404 -34.135349,-24.88859 -3.210159,-0.487487 -9.43318,-0.486461 -12.631579,0.0021 -10.0261,1.531447 -18.474986,5.761934 -25.477053,12.756753 -5.422938,5.417324 -9.03555,11.368162 -11.279539,18.580105 -1.396388,4.487846 -1.949742,8.265896 -1.949742,13.311959 0,5.046063 0.553354,8.824113 1.949742,13.311959 3.664489,11.77728 11.770679,21.353645 22.800735,26.935977 5.180155,2.62169 10.754534,4.17945 17.011884,4.75397 1.762142,0.1618 7.657968,-0.073 9.779287,-0.38946 z"
     style="fill:#ffffff;fill-opacity:1;stroke-width:0.40747029" />
  <path
     transform="scale(0.2)"
     id="path4551"
     d="m 58.38373,74.574322 c -1.328981,-0.456395 -2.643954,-1.770346 -3.016654,-3.014306 -0.546726,-1.824807 -0.09219,-5.800983 0.980126,-8.573951 1.338683,-3.461778 3.816467,-6.243828 8.046715,-9.034833 3.470822,-2.289956 4.305737,-3.231365 5.187679,-5.84937 0.5186,-1.539437 0.561183,-4.339992 0.09039,-5.944737 -1.409008,-4.802774 -6.254565,-7.88447 -11.199565,-7.122738 -3.370339,0.51917 -6.115489,2.643572 -7.694517,5.954593 -0.497095,1.042346 -1.16536,2.156513 -1.485033,2.475927 -1.920284,1.918729 -4.882433,1.970111 -6.791113,0.117801 -2.149953,-2.086458 -2.034149,-4.587813 0.404914,-8.746092 2.571832,-4.384631 7.06933,-7.760544 12.115424,-9.094081 2.781846,-0.735161 6.842971,-0.78481 9.529573,-0.116503 11.888838,2.957415 18.443248,15.562463 13.917906,26.766082 -1.598981,3.958674 -3.873665,6.587644 -8.160294,9.431275 -2.969207,1.969689 -3.88914,2.803911 -4.564736,4.139434 -0.489831,0.968302 -0.840742,2.623306 -0.843285,3.977199 -0.0041,2.154143 -1.473376,4.113294 -3.549418,4.732666 -1.279665,0.381779 -1.60099,0.37113 -2.968116,-0.09837 z"
     style="fill:#ffffff;fill-opacity:1;stroke-width:0.40747029" />
  <path
     transform="scale(0.2)"
     id="path4553"
     d="m 57.817762,89.328283 c -2.841974,-1.437706 -3.59243,-5.014673 -1.552171,-7.398257 1.069225,-1.249149 2.13773,-1.747269 3.74802,-1.747269 4.879531,0 6.709762,6.376607 2.56562,8.938733 -1.433257,0.886115 -3.261654,0.965523 -4.761469,0.206793 z"
     style="fill:#ffffff;fill-opacity:1;stroke-width:0.40747029" />
</svg>
